<?xml version="1.0" encoding="iso-8859-1"?>
<!-- Uploaded to: SVG Repo, www.svgrepo.com, Generator: SVG Repo Mixer Tools -->
<svg fill="#5C848E" height="800px" width="800px" version="1.1" id="Capa_1" xmlns="http://www.w3.org/2000/svg" xmlns:xlink="http://www.w3.org/1999/xlink" 
	 viewBox="0 0 612 612" xml:space="preserve">
<g>
	<g>
		<g>
			<path d="M435.575,23.05c-47.689,0-94.796,19.225-129.574,52.202C271.237,42.277,224.116,23.05,176.408,23.05
				C77.488,23.05,0,100.545,0,199.474c0,55.366,22.801,108.911,71.755,168.507c42.707,51.993,102.165,105.723,181.461,175.893
				l39.959,39.78c3.548,3.53,8.188,5.297,12.829,5.297c4.641,0,9.28-1.767,12.829-5.298l39.949-39.78
				c79.29-70.152,138.74-123.871,181.472-175.891C589.202,308.388,612,254.843,612,199.474C612,100.545,534.506,23.05,435.575,23.05
				z M334.284,516.994c-0.267,0.236-0.527,0.48-0.782,0.732L306,545.11l-27.509-27.384c-0.251-0.252-0.512-0.495-0.779-0.73
				C123.572,380.6,36.363,298.603,36.363,199.474c0-78.54,61.514-140.06,140.046-140.06c43.19,0,87.531,20.695,115.712,54.01
				c3.453,4.082,8.532,6.436,13.879,6.438c0,0,0,0,0.003,0c5.347,0,10.423-2.355,13.879-6.436
				c28.195-33.316,72.528-54.011,115.694-54.011c78.538,0,140.06,61.52,140.06,140.06
				C575.637,298.635,488.428,380.62,334.284,516.994z"/>
			<path d="M187.246,87.288c-69.143,0-123.306,54.169-123.306,123.319c0,10.042,8.141,18.182,18.182,18.182
				s18.182-8.139,18.182-18.182c0-48.761,38.189-86.956,86.943-86.956c10.041,0,18.182-8.139,18.182-18.182
				C205.427,95.429,197.286,87.288,187.246,87.288z"/>
		</g>
	</g>
</g>
</svg>